<svg version="1.0" xmlns="http://www.w3.org/2000/svg"
 width="512.000000pt" height="512.000000pt" viewBox="0 0 512.000000 512.000000"
 preserveAspectRatio="xMidYMid meet">

<g transform="translate(0.000000,512.000000) scale(0.100000,-0.100000)"
fill="#000000" stroke="none">
<path d="M381 5100 c-161 -43 -283 -154 -349 -317 l-27 -68 0 -2155 0 -2155
27 -68 c61 -153 175 -262 328 -313 53 -18 134 -19 2205 -19 l2150 0 59 23
c123 46 240 149 290 256 60 126 57 -10 54 2308 l-3 2123 -27 68 c-34 83 -71
138 -134 198 -68 63 -128 96 -219 119 -77 20 -110 20 -2179 19 -2045 0 -2103
-1 -2175 -19z m934 -1191 c96 -30 156 -90 186 -189 19 -63 21 -87 15 -174 -6
-103 -39 -252 -75 -344 l-21 -52 22 -11 c16 -9 23 -9 26 -1 10 31 170 259 241
343 126 151 231 238 392 323 174 93 354 133 555 123 393 -18 554 -257 467
-695 -14 -72 -14 -85 -2 -93 8 -5 17 -8 21 -6 4 1 43 56 86 122 199 304 405
493 645 591 161 65 223 77 412 78 149 1 179 -2 240 -21 139 -44 234 -139 278
-278 20 -62 22 -91 21 -260 0 -225 -8 -271 -118 -736 -92 -386 -113 -502 -125
-694 -15 -226 6 -398 62 -497 l21 -38 -24 -24 c-36 -40 -157 -117 -229 -147
-125 -52 -280 -61 -418 -25 -220 58 -323 224 -323 520 0 187 23 305 148 766
93 340 105 404 106 535 1 125 -12 162 -67 195 -105 64 -324 -35 -513 -232
-141 -149 -248 -315 -327 -513 -83 -208 -116 -367 -124 -605 -6 -191 10 -312
54 -407 15 -32 27 -61 27 -65 2 -16 -131 -110 -207 -148 -135 -67 -255 -83
-409 -56 -194 35 -301 134 -354 327 -14 48 -18 101 -18 214 1 182 24 305 139
723 90 331 115 454 115 575 -1 118 -21 170 -77 194 -125 52 -362 -70 -545
-281 -268 -310 -410 -698 -411 -1126 0 -184 15 -277 59 -368 31 -64 31 -64
-80 -140 -144 -99 -228 -127 -381 -127 -267 1 -399 85 -477 305 -30 81 -35
286 -13 460 36 288 125 780 217 1201 l40 185 -107 164 c-59 90 -109 170 -112
177 -7 18 232 132 383 182 150 50 259 69 400 70 87 1 127 -4 179 -20z"/>
</g>
</svg>