<?xml version="1.0" encoding="UTF-8"?>
<!DOCTYPE svg PUBLIC "-//W3C//DTD SVG 1.1//EN" "http://www.w3.org/Graphics/SVG/1.1/DTD/svg11.dtd">
<svg xmlns="http://www.w3.org/2000/svg" version="1.1" width="512px" height="512px" style="shape-rendering:geometricPrecision; text-rendering:geometricPrecision; image-rendering:optimizeQuality; fill-rule:evenodd; clip-rule:evenodd" xmlns:xlink="http://www.w3.org/1999/xlink">
<g><path style="opacity:0.999" fill="#222222" d="M 40.5,-0.5 C 183.833,-0.5 327.167,-0.5 470.5,-0.5C 491.833,5.5 505.5,19.1667 511.5,40.5C 511.5,183.833 511.5,327.167 511.5,470.5C 505.5,491.833 491.833,505.5 470.5,511.5C 327.167,511.5 183.833,511.5 40.5,511.5C 19.1667,505.5 5.5,491.833 -0.5,470.5C -0.5,327.167 -0.5,183.833 -0.5,40.5C 5.5,19.1667 19.1667,5.5 40.5,-0.5 Z"/></g>
<g><path style="opacity:1" fill="#fdfdfd" d="M 99.5,118.5 C 109.883,118.162 120.216,118.662 130.5,120C 141.952,123.786 148.785,131.619 151,143.5C 151.667,150.167 151.667,156.833 151,163.5C 149.029,175.202 145.862,186.535 141.5,197.5C 143.331,198.052 144.997,198.052 146.5,197.5C 158.003,176.825 172.67,158.658 190.5,143C 216.413,122.521 245.746,114.854 278.5,120C 302.944,126.113 314.944,141.779 314.5,167C 314.067,176.461 312.734,185.794 310.5,195C 310.709,196.871 311.709,198.038 313.5,198.5C 325.335,178.813 339.669,160.98 356.5,145C 381.412,124.267 410.079,115.601 442.5,119C 465.221,122.054 478.388,134.888 482,157.5C 483.254,180.124 481.254,202.457 476,224.5C 468.497,251.52 462.497,278.854 458,306.5C 457.333,319.833 457.333,333.167 458,346.5C 458.727,355.248 461.227,363.414 465.5,371C 444.066,393.355 418.732,399.022 389.5,388C 375.233,379.323 367.733,366.489 367,349.5C 365.759,334.671 366.759,320.004 370,305.5C 376.176,281.129 382.51,256.795 389,232.5C 391.789,221.312 392.789,209.979 392,198.5C 389.727,190.724 384.561,187.057 376.5,187.5C 372.307,187.398 368.307,188.231 364.5,190C 345.572,199.925 330.072,213.758 318,231.5C 292.634,269.946 283.634,311.946 291,357.5C 292.847,362.738 294.847,367.738 297,372.5C 276.491,391.834 252.658,397.667 225.5,390C 212.008,384.506 203.508,374.673 200,360.5C 196.53,342.776 196.863,325.109 201,307.5C 208.643,278.93 215.976,250.263 223,221.5C 223.667,213.5 223.667,205.5 223,197.5C 220.719,190.187 215.719,186.854 208,187.5C 202.136,187.674 196.636,189.174 191.5,192C 166.64,207.532 148.14,228.699 136,255.5C 121.875,285.705 116.875,317.372 121,350.5C 122.768,358.134 125.102,365.467 128,372.5C 106.904,392.898 82.4044,398.398 54.5,389C 39.4781,381.156 31.3114,368.656 30,351.5C 28.8264,334.04 29.8264,316.707 33,299.5C 39.4882,258.893 47.3215,218.56 56.5,178.5C 49.4316,166.703 42.0982,155.037 34.5,143.5C 54.5977,131.024 76.2644,122.691 99.5,118.5 Z"/></g>
</svg>
